<svg width="20" height="20" viewBox="0 0 20 20" fill="none" xmlns="http://www.w3.org/2000/svg">
<path d="M15.9388 9.74677C15.9388 9.55216 15.8571 9.36382 15.7128 9.22571L11.5882 5.10113C11.4249 4.94418 11.2554 4.87512 11.0797 4.87512C10.6779 4.87512 10.3891 5.15763 10.3891 5.54058C10.3891 5.74147 10.4707 5.91098 10.5963 6.03653L12.0088 7.4679L13.8294 9.13154L12.3729 9.04365H4.76409C4.34347 9.04365 4.05469 9.33243 4.05469 9.74677C4.05469 10.1548 4.34347 10.4436 4.76409 10.4436H12.3729L13.8294 10.3557L12.0088 12.0194L10.5963 13.4507C10.4707 13.5763 10.3891 13.7458 10.3891 13.9467C10.3891 14.3296 10.6779 14.6121 11.0797 14.6121C11.2554 14.6121 11.4249 14.5431 11.5756 14.3987L15.7128 10.2616C15.8571 10.1234 15.9388 9.93511 15.9388 9.74677Z" fill="#1C1C1E"/>
</svg>
