<svg width="20" height="20" viewBox="0 0 20 20" fill="none" xmlns="http://www.w3.org/2000/svg">
<path d="M4.05469 9.74665C4.05469 9.93499 4.1363 10.1233 4.28069 10.2614L8.42411 14.3986C8.57478 14.543 8.738 14.612 8.92006 14.612C9.31557 14.612 9.60435 14.3295 9.60435 13.9466C9.60435 13.7457 9.52902 13.5762 9.39718 13.4506L7.98465 12.0193L6.16406 10.3556L7.62681 10.4435H15.2356C15.65 10.4435 15.9388 10.1547 15.9388 9.74665C15.9388 9.33231 15.65 9.04353 15.2356 9.04353H7.62681L6.17034 9.13142L7.98465 7.46777L9.39718 6.03641C9.52902 5.91085 9.60435 5.74135 9.60435 5.54046C9.60435 5.15751 9.31557 4.875 8.92006 4.875C8.738 4.875 8.5685 4.94406 8.40527 5.101L4.28069 9.22559C4.1363 9.3637 4.05469 9.55204 4.05469 9.74665Z" fill="#1C1C1E"/>
</svg>
