<svg width="16" height="16" viewBox="0 0 16 16" fill="none" xmlns="http://www.w3.org/2000/svg">
<path d="M12.8114 9.71597C12.8114 7.71708 11.4654 6.33594 9.18527 6.33594H6.03125L4.87109 6.39119L5.75 5.64789L7.02567 4.40235C7.12612 4.30693 7.19141 4.18137 7.19141 4.01563C7.19141 3.69923 6.97042 3.47322 6.64397 3.47322C6.50335 3.47322 6.34766 3.53851 6.23716 3.64398L3.35937 6.48159C3.24386 6.59208 3.18359 6.74275 3.18359 6.89844C3.18359 7.04911 3.24386 7.19978 3.35937 7.31028L6.23716 10.1479C6.34766 10.2534 6.50335 10.3186 6.64397 10.3186C6.97042 10.3186 7.19141 10.0926 7.19141 9.77624C7.19141 9.6105 7.12612 9.48996 7.02567 9.38952L5.75 8.14398L4.87109 7.4057L6.03125 7.45592H9.21038C10.8175 7.45592 11.7065 8.36999 11.7065 9.67579C11.7065 10.9816 10.8175 11.9358 9.21038 11.9358H8.03516C7.70368 11.9358 7.46763 12.1869 7.46763 12.4933C7.46763 12.7997 7.70368 13.0508 8.04018 13.0508H9.25056C11.4905 13.0508 12.8114 11.7299 12.8114 9.71597Z" fill="black"/>
</svg>
