<svg width="20" height="20" viewBox="0 0 20 20" fill="none" xmlns="http://www.w3.org/2000/svg">
<path d="M10.8349 15.5978C11.1802 15.5978 11.4501 15.4659 11.7829 15.152L16.755 10.4876C16.9998 10.2553 17.094 9.98533 17.094 9.75305C17.094 9.51449 16.9998 9.25082 16.755 9.01854L11.7829 4.38545C11.4187 4.04644 11.1802 3.90833 10.8474 3.90833C10.3452 3.90833 9.98737 4.29756 9.98737 4.78723V7.02216H9.83043C5.49867 7.02216 3.48975 9.80328 3.48975 14.361C3.48975 15.1583 3.82875 15.5727 4.26821 15.5727C4.60093 15.5727 4.90855 15.4659 5.15339 15.0077C6.13902 13.1745 7.53899 12.5028 9.83043 12.5028H9.98737V14.7503C9.98737 15.2399 10.3452 15.5978 10.8349 15.5978ZM11.2367 13.9781C11.1802 13.9781 11.1425 13.9404 11.1425 13.8776V11.5611C11.1425 11.4167 11.0797 11.3539 10.9353 11.3539H10.1318C7.25649 11.3539 5.42334 12.2642 4.66999 13.8337C4.65116 13.8714 4.63232 13.8902 4.60721 13.8902C4.5821 13.8902 4.56327 13.8714 4.56327 13.8274C4.66371 10.8329 6.0888 8.16474 10.1318 8.16474H10.9353C11.0797 8.16474 11.1425 8.10196 11.1425 7.95757V5.58452C11.1425 5.52802 11.1802 5.49036 11.2367 5.49036C11.2743 5.49036 11.312 5.50919 11.3434 5.54058L15.6312 9.63377C15.6752 9.68399 15.694 9.71538 15.694 9.75305C15.694 9.79072 15.6814 9.82211 15.6312 9.87233L11.3371 13.9279C11.3057 13.9592 11.2681 13.9781 11.2367 13.9781Z" fill="#F2F2F2"/>
</svg>
