<svg width="20" height="21" viewBox="0 0 20 21" fill="none" xmlns="http://www.w3.org/2000/svg">
<path d="M11.0862 18.3153C13.6727 18.3153 15.2296 17.3862 15.2296 15.8356V12.4329C16.3157 11.4787 16.9497 9.95318 16.9497 8.26442C16.9497 4.34073 14.4072 1.72913 10.5902 1.72913C6.7921 1.72913 4.2621 4.28423 4.2621 8.12631C4.2621 8.33976 4.26838 8.52182 4.28721 8.6976L3.3832 10.3173C3.15091 10.7254 3.04419 11.1146 3.04419 11.4787C3.04419 12.1693 3.47736 12.728 4.2621 12.8912V14.1656C4.2621 15.4526 5.14729 16.093 6.37776 15.9611L7.00555 15.8921C7.04321 17.4113 8.56874 18.3153 11.0862 18.3153ZM11.0862 17.1037C9.25303 17.1037 8.1544 16.5387 8.1544 15.6284V14.7683C8.1544 14.6239 8.06651 14.5549 7.9284 14.5674L6.23336 14.7495C5.73741 14.806 5.47374 14.5925 5.47374 14.0715V12.0751C5.47374 11.9747 5.3984 11.9056 5.29168 11.9056H4.94639C4.54461 11.9056 4.31233 11.7047 4.31233 11.3908C4.31233 11.2276 4.36883 11.033 4.48183 10.8384L5.53652 8.94243C5.49257 8.65993 5.46746 8.3837 5.46746 8.10747C5.46746 5.00619 7.51406 2.94076 10.5902 2.94076C13.679 2.94076 15.7381 5.06897 15.7381 8.26442C15.7381 9.82134 15.0852 11.1711 14.0117 11.824V15.6284C14.0117 16.5387 12.9131 17.1037 11.0862 17.1037ZM6.44681 7.09673C6.44681 8.29581 7.2755 9.11194 8.51224 9.11194C8.68175 9.11194 8.83869 9.09938 8.98936 9.06799C9.36604 9.39444 9.90594 9.58278 10.4961 9.58278C10.7221 9.58278 10.9669 9.55767 11.2055 9.49489C11.444 9.73345 11.8019 9.87156 12.2225 9.87156H12.3794C12.4924 10.4994 12.9005 10.9263 13.4153 10.9263C14.1561 10.9263 14.6834 10.1038 14.6834 8.93616C14.6834 8.62854 14.6709 8.38998 14.652 8.17653C14.8655 7.9003 14.9848 7.53618 14.9848 7.11557C14.9848 6.2806 14.4323 5.6277 13.5911 5.44564C13.409 4.71113 12.7749 4.18379 12.0028 4.18379C11.9463 4.18379 11.8709 4.19634 11.7956 4.2089C11.5194 3.90128 11.105 3.71294 10.6593 3.71294C10.1696 3.71294 9.74271 3.895 9.44765 4.19634C9.22792 4.10845 9.00192 4.06451 8.76336 4.06451C7.92212 4.06451 7.28805 4.64207 7.28805 5.42681V5.43309C6.76698 5.80976 6.44681 6.43755 6.44681 7.09673ZM8.98936 5.33264C8.98308 5.53981 9.12748 5.69048 9.32837 5.69048C9.52926 5.69048 9.6611 5.55865 9.67365 5.35775C9.69249 4.79274 10.1006 4.39723 10.6593 4.39723C10.9857 4.39723 11.2808 4.57302 11.4001 4.84297C11.4503 4.93713 11.5507 4.94341 11.6951 4.90574C11.7705 4.88691 11.8521 4.87435 11.94 4.87435C12.5113 4.88063 12.9507 5.32009 12.9507 5.89765C12.9507 7.33529 10.8602 7.12184 10.8602 8.65993C10.8602 8.72899 10.8665 8.79804 10.879 8.8671C10.7723 8.88593 10.6593 8.89221 10.5526 8.89221C10.2889 8.89221 10.0315 8.83571 9.81805 8.74154C10.2826 8.42765 10.5588 7.91914 10.5588 7.29762C10.5588 7.25996 10.5526 7.22229 10.5526 7.18462C11.218 6.97745 11.5696 6.49405 11.5633 5.75326C11.5633 5.5712 11.4001 5.40798 11.2117 5.40798C11.0297 5.40798 10.8727 5.56492 10.879 5.75326C10.8853 6.17388 10.7221 6.41872 10.3642 6.52544C10.2952 6.41244 10.2136 6.31199 10.1131 6.23038C9.98127 6.11738 9.89338 6.07343 9.76782 6.07343C9.57321 6.07343 9.43509 6.20527 9.43509 6.38733C9.43509 6.58822 9.54182 6.64472 9.69249 6.78284C9.81177 6.89584 9.87455 7.07162 9.87455 7.28507C9.87455 7.96936 9.34092 8.42137 8.5248 8.42137C7.68356 8.42137 7.1311 7.9003 7.1311 7.09673C7.1311 6.74517 7.26294 6.41244 7.49522 6.1676C7.7275 6.51916 8.13557 6.72634 8.64408 6.72634C8.82614 6.72634 8.98936 6.56939 8.98936 6.38733C8.98936 6.19899 8.83241 6.04204 8.64408 6.04204C8.24229 6.04204 7.97862 5.79721 7.97862 5.42681C7.97862 5.0313 8.30507 4.7488 8.75708 4.7488C8.8638 4.7488 8.97681 4.76763 9.08353 4.79902C9.02703 4.96225 8.99564 5.13803 8.98936 5.33264ZM12.7435 8.45276C12.7435 8.63482 12.8817 8.77921 13.0763 8.79804C13.4153 8.82315 13.7229 8.77293 13.9866 8.67248C13.9928 8.74782 13.9928 8.83571 13.9928 8.92988C13.9928 9.68951 13.7292 10.242 13.4153 10.242C13.1391 10.242 12.9507 9.8904 12.9507 9.38817C12.9507 9.294 12.8817 9.24377 12.7938 9.24377C12.7122 9.24377 12.6117 9.25005 12.5175 9.25005C11.8835 9.25005 11.557 9.04288 11.557 8.6411C11.557 7.6178 13.4592 7.81869 13.635 6.14877C14.0431 6.26805 14.2942 6.62589 14.2942 7.11557C14.2942 7.76847 13.8171 8.17025 13.0888 8.11375C12.9005 8.1012 12.7435 8.26442 12.7435 8.45276Z" fill="#3C78D8"/>
</svg>
