<svg width="20" height="20" viewBox="0 0 20 20" fill="none" xmlns="http://www.w3.org/2000/svg">
<path d="M3.8916 18.4268H15.9941C17.9014 18.4268 18.8945 17.4424 18.8945 15.5615V4.86523C18.8945 2.98438 17.9014 2 15.9941 2H3.8916C1.99316 2 1 2.97559 1 4.86523V15.5615C1 17.4424 1.99316 18.4268 3.8916 18.4268ZM3.88281 16.6777C3.15332 16.6777 2.74902 16.2998 2.74902 15.5264V7.44043C2.74902 6.66699 3.15332 6.28906 3.88281 6.28906H16.0029C16.7324 6.28906 17.1367 6.66699 17.1367 7.44043V15.5264C17.1367 16.2998 16.7324 16.6777 16.0029 16.6777H3.88281ZM8.25098 9.32129H8.76953C9.08594 9.32129 9.19141 9.22461 9.19141 8.91699V8.39844C9.19141 8.08203 9.08594 7.98535 8.76953 7.98535H8.25098C7.93457 7.98535 7.8291 8.08203 7.8291 8.39844V8.91699C7.8291 9.22461 7.93457 9.32129 8.25098 9.32129ZM11.125 9.32129H11.6436C11.9512 9.32129 12.0566 9.22461 12.0566 8.91699V8.39844C12.0566 8.08203 11.9512 7.98535 11.6436 7.98535H11.125C10.8086 7.98535 10.7031 8.08203 10.7031 8.39844V8.91699C10.7031 9.22461 10.8086 9.32129 11.125 9.32129ZM13.9902 9.32129H14.5088C14.8252 9.32129 14.9307 9.22461 14.9307 8.91699V8.39844C14.9307 8.08203 14.8252 7.98535 14.5088 7.98535H13.9902C13.6826 7.98535 13.5771 8.08203 13.5771 8.39844V8.91699C13.5771 9.22461 13.6826 9.32129 13.9902 9.32129ZM5.38574 12.1514H5.89551C6.21191 12.1514 6.31738 12.0547 6.31738 11.7383V11.2197C6.31738 10.9121 6.21191 10.8154 5.89551 10.8154H5.38574C5.06934 10.8154 4.96387 10.9121 4.96387 11.2197V11.7383C4.96387 12.0547 5.06934 12.1514 5.38574 12.1514ZM8.25098 12.1514H8.76953C9.08594 12.1514 9.19141 12.0547 9.19141 11.7383V11.2197C9.19141 10.9121 9.08594 10.8154 8.76953 10.8154H8.25098C7.93457 10.8154 7.8291 10.9121 7.8291 11.2197V11.7383C7.8291 12.0547 7.93457 12.1514 8.25098 12.1514ZM11.125 12.1514H11.6436C11.9512 12.1514 12.0566 12.0547 12.0566 11.7383V11.2197C12.0566 10.9121 11.9512 10.8154 11.6436 10.8154H11.125C10.8086 10.8154 10.7031 10.9121 10.7031 11.2197V11.7383C10.7031 12.0547 10.8086 12.1514 11.125 12.1514ZM13.9902 12.1514H14.5088C14.8252 12.1514 14.9307 12.0547 14.9307 11.7383V11.2197C14.9307 10.9121 14.8252 10.8154 14.5088 10.8154H13.9902C13.6826 10.8154 13.5771 10.9121 13.5771 11.2197V11.7383C13.5771 12.0547 13.6826 12.1514 13.9902 12.1514ZM5.38574 14.9727H5.89551C6.21191 14.9727 6.31738 14.876 6.31738 14.5684V14.0498C6.31738 13.7334 6.21191 13.6367 5.89551 13.6367H5.38574C5.06934 13.6367 4.96387 13.7334 4.96387 14.0498V14.5684C4.96387 14.876 5.06934 14.9727 5.38574 14.9727ZM8.25098 14.9727H8.76953C9.08594 14.9727 9.19141 14.876 9.19141 14.5684V14.0498C9.19141 13.7334 9.08594 13.6367 8.76953 13.6367H8.25098C7.93457 13.6367 7.8291 13.7334 7.8291 14.0498V14.5684C7.8291 14.876 7.93457 14.9727 8.25098 14.9727ZM11.125 14.9727H11.6436C11.9512 14.9727 12.0566 14.876 12.0566 14.5684V14.0498C12.0566 13.7334 11.9512 13.6367 11.6436 13.6367H11.125C10.8086 13.6367 10.7031 13.7334 10.7031 14.0498V14.5684C10.7031 14.876 10.8086 14.9727 11.125 14.9727Z" fill="#1C1C1E"/>
</svg>
