<svg width="20" height="21" viewBox="0 0 20 21" fill="none" xmlns="http://www.w3.org/2000/svg">
<path d="M9.99379 16.7444C13.5534 16.7444 16.4914 13.8064 16.4914 10.2531C16.4914 6.69978 13.5471 3.76172 9.98751 3.76172C6.43422 3.76172 3.50244 6.69978 3.50244 10.2531C3.50244 13.8064 6.4405 16.7444 9.99379 16.7444ZM6.82973 11.0441C6.54722 11.0441 6.3275 10.8244 6.3275 10.5419C6.3275 10.2593 6.54722 10.0396 6.82973 10.0396H9.49156V6.4361C9.49156 6.1536 9.71129 5.93387 9.98751 5.93387C10.2763 5.93387 10.496 6.1536 10.496 6.4361V10.5419C10.496 10.8244 10.2763 11.0441 9.98751 11.0441H6.82973Z" fill="#595959"/>
</svg>
