<svg width="12" height="13" viewBox="0 0 12 13" fill="none" xmlns="http://www.w3.org/2000/svg">
<path fill-rule="evenodd" clip-rule="evenodd" d="M8.37628 9.64632C9.87984 9.46678 11.189 8.54037 11.3535 7.69388C11.6128 6.36042 11.5914 4.43979 11.5914 4.43979C11.5914 1.83662 9.88585 1.0736 9.88585 1.0736C9.02591 0.678635 7.54925 0.512543 6.01511 0.5H5.97742C4.44328 0.512543 2.96759 0.678635 2.10758 1.0736C2.10758 1.0736 0.401985 1.83662 0.401985 4.43979C0.401985 4.5976 0.40117 4.76359 0.400321 4.93639C0.397962 5.41629 0.395346 5.94872 0.409226 6.50447C0.471163 9.05022 0.875952 11.5592 3.22969 12.1822C4.31495 12.4694 5.24672 12.5296 5.99714 12.4883C7.35801 12.4129 8.12194 12.0026 8.12194 12.0026L8.07707 11.0153C8.07707 11.0153 7.10457 11.3219 6.0124 11.2845C4.93031 11.2474 3.78796 11.1678 3.61295 9.83931C3.59679 9.72261 3.5887 9.59783 3.5887 9.46678C3.5887 9.46678 4.65094 9.72642 5.99714 9.7881C6.82029 9.82586 7.59224 9.73987 8.37628 9.64632ZM9.5796 7.79374V4.64174C9.5796 3.99754 9.41557 3.48562 9.08617 3.10689C8.74636 2.72816 8.30142 2.53401 7.74916 2.53401C7.11007 2.53401 6.62614 2.77962 6.30624 3.27091L5.99514 3.79234L5.68409 3.27091C5.36413 2.77962 4.8802 2.53401 4.24118 2.53401C3.68885 2.53401 3.24392 2.72816 2.90417 3.10689C2.5747 3.48562 2.41068 3.99754 2.41068 4.64174V7.79374H3.65944V4.73439C3.65944 4.08948 3.93078 3.76214 4.47354 3.76214C5.07364 3.76214 5.37447 4.15045 5.37447 4.91826V6.59282H6.61586V4.91826C6.61586 4.15045 6.91663 3.76214 7.51673 3.76214C8.05949 3.76214 8.33083 4.08948 8.33083 4.73439V7.79374H9.5796Z" fill="#6364FF"/>
</svg>
