<svg width="20" height="21" viewBox="0 0 20 21" fill="none" xmlns="http://www.w3.org/2000/svg">
<path d="M4.47754 10.5021C5.54688 10.5021 6.44531 9.55481 6.44531 8.32922C6.44531 7.13293 5.53711 6.21985 4.47754 6.21985C3.41797 6.21985 2.50488 7.14758 2.50977 8.33899C2.50977 9.55481 3.41309 10.5021 4.47754 10.5021ZM10.0049 10.5021C11.0693 10.5021 11.9727 9.55481 11.9727 8.32922C11.9727 7.13293 11.0645 6.21985 10.0049 6.21985C8.94043 6.21985 8.03223 7.14758 8.03711 8.33899C8.03711 9.55481 8.93555 10.5021 10.0049 10.5021ZM15.5225 10.5021C16.5869 10.5021 17.4902 9.55481 17.4902 8.32922C17.4902 7.13293 16.582 6.21985 15.5225 6.21985C14.4629 6.21985 13.5498 7.14758 13.5547 8.33899C13.5547 9.55481 14.458 10.5021 15.5225 10.5021ZM1.43066 15.0431H7.51953C8.3252 15.0431 8.60352 14.799 8.60352 14.3546C8.60352 13.0948 7.00684 11.3663 4.47754 11.3663C1.94336 11.3663 0.351562 13.0948 0.351562 14.3546C0.351562 14.799 0.629883 15.0431 1.43066 15.0431ZM10 11.3663C9.18457 11.3663 8.4668 11.5519 7.87109 11.84C8.72559 12.5089 9.27246 13.4025 9.27246 14.3546C9.27246 14.6232 9.21387 14.8527 9.09668 15.0431H13.0469C13.8477 15.0431 14.126 14.799 14.126 14.3546C14.126 13.0948 12.5342 11.3663 10 11.3663ZM15.5225 11.3663C14.707 11.3663 13.9893 11.5519 13.3936 11.84C14.248 12.504 14.7949 13.4025 14.7949 14.3546C14.7949 14.6232 14.7363 14.8527 14.624 15.0431H18.5645C19.3652 15.0431 19.6436 14.799 19.6436 14.3546C19.6436 13.0948 18.0518 11.3663 15.5225 11.3663Z" fill="#595959"/>
</svg>
