<svg width="20" height="21" viewBox="0 0 20 21" fill="none" xmlns="http://www.w3.org/2000/svg">
<path d="M9.99379 16.757C13.5534 16.757 16.4914 13.8189 16.4914 10.2594C16.4914 6.70606 13.5471 3.76801 9.98751 3.76801C6.43422 3.76801 3.50244 6.70606 3.50244 10.2594C3.50244 13.8189 6.4405 16.757 9.99379 16.757ZM9.99379 10.0396C9.07722 10.0396 8.33643 9.26745 8.33643 8.23159C8.33643 7.27107 9.07722 6.4675 9.99379 6.4675C10.9041 6.4675 11.6449 7.27107 11.6449 8.23159C11.6449 9.26745 10.9041 10.0459 9.99379 10.0396ZM7.11851 13.5301C6.82345 13.5301 6.68534 13.3355 6.68534 13.0719C6.68534 12.3687 7.72747 10.5544 9.99379 10.5544C12.2538 10.5544 13.296 12.3687 13.296 13.0719C13.296 13.3355 13.1579 13.5301 12.8691 13.5301H7.11851Z" fill="#595959"/>
</svg>
