<svg width="20" height="21" viewBox="0 0 20 21" fill="none" xmlns="http://www.w3.org/2000/svg">
<path d="M7.74618 8.77148C7.41345 9.1042 7.40717 9.54993 7.74618 9.88894L10.4268 12.5759C10.7658 12.9149 11.2116 12.8961 11.5443 12.5633L12.3039 11.7911C12.0842 11.4521 12.1093 11.019 12.4044 10.7239C12.7057 10.4288 13.1326 10.3975 13.4779 10.636L17.1003 7.00738C18.0419 6.05314 18.0419 5.03612 17.1128 4.11327L16.2025 3.20298C15.2671 2.27385 14.2501 2.27385 13.3021 3.21553L9.67977 6.8316C9.91833 7.17061 9.88694 7.61006 9.59188 7.9114C9.29682 8.20019 8.86365 8.23158 8.51208 8.00557L7.74618 8.77148ZM11.3309 7.42173L14.2752 4.47111C14.3882 4.35183 14.5891 4.37067 14.7084 4.47739C14.8402 4.58411 14.8214 4.78501 14.7084 4.89801L11.7578 7.84862C11.6322 7.9679 11.4501 7.96163 11.3434 7.84862C11.2179 7.72307 11.2116 7.54101 11.3309 7.42173ZM12.4797 8.54547L15.4115 5.61997C15.5371 5.50069 15.7317 5.49441 15.8447 5.61997C15.9514 5.74553 15.9514 5.92759 15.8447 6.04059L12.9003 8.9912C12.7811 9.11676 12.5927 9.09793 12.4797 8.9912C12.3416 8.85309 12.3416 8.68358 12.4797 8.54547ZM3.48976 14.5346L2.2844 16.6565C2.16512 16.8762 2.14001 17.0709 2.2844 17.2215L3.08797 18.0251C3.24492 18.1758 3.43954 18.1444 3.64671 18.0314L5.78119 16.8197C6.0072 16.6942 6.15787 16.4556 6.17042 16.2422L6.20809 15.5956L9.21521 12.5884L7.72734 11.1006L4.72023 14.1014L4.07361 14.1454C3.85388 14.1579 3.61532 14.3023 3.48976 14.5346Z" fill="#595959"/>
</svg>
